<svg width="153" height="32" viewBox="0 0 153 32" fill="none" xmlns="http://www.w3.org/2000/svg">
<g clip-path="url(#clip0_142_1212)">
<path d="M28.1434 5.23047C29.5853 5.23047 30.7542 4.05959 30.7542 2.61523C30.7542 1.17088 29.5853 0 28.1434 0C26.7016 0 25.5327 1.17088 25.5327 2.61523C25.5327 4.05959 26.7016 5.23047 28.1434 5.23047Z" fill="#FACC15"/>
<path d="M20.1053 21.9275C19.0127 21.9275 18.1238 22.7983 18.0925 23.8837C18.0925 23.9046 18.0925 23.9242 18.0925 23.9451C18.0925 23.966 18.0925 23.9856 18.0925 24.0066C18.082 24.7192 17.8862 25.3861 17.552 25.9628C16.8563 27.1632 15.5588 27.9713 14.0733 27.9713C12.5878 27.9713 11.2889 27.1632 10.5945 25.9628C10.2694 25.4031 10.0762 24.7571 10.0554 24.068C10.054 24.0275 10.0527 23.9856 10.0527 23.9438C10.0527 23.902 10.0527 23.8614 10.0554 23.8196C9.99139 22.763 9.11549 21.9261 8.04509 21.9261C6.9747 21.9261 6.09619 22.7643 6.03353 23.8222C6.03223 23.8627 6.03223 23.9033 6.03223 23.9438C6.03223 23.9843 6.03223 24.0249 6.03353 24.0654C6.04267 24.7192 6.13013 25.3547 6.28677 25.9628C7.18094 29.4345 10.3282 31.9987 14.0733 31.9987C17.8183 31.9987 20.9656 29.4345 21.8597 25.9628C22.0112 25.3743 22.0986 24.7598 22.1117 24.1256C22.113 24.0654 22.1143 24.0053 22.1143 23.9438C22.1143 23.8823 22.1143 23.8222 22.1117 23.762C22.0203 22.7329 21.1575 21.9261 20.1066 21.9261L20.1053 21.9275Z" fill="#F8FAFC"/>
<path d="M24.1231 4.88918C22.9404 4.20399 21.5672 3.81171 20.1026 3.81171C18.638 3.81171 17.2647 4.20399 16.0821 4.88918C15.3249 5.32723 14.6462 5.88689 14.0718 6.5394C13.4974 5.88559 12.8187 5.32723 12.0615 4.88918C10.8789 4.20399 9.50564 3.81171 8.04103 3.81171H0V11.8666C0 14.763 1.52597 17.3011 3.81427 18.7198C3.81557 18.7198 3.81688 18.7212 3.81949 18.7225C3.88345 18.7617 3.95133 18.797 4.02051 18.8284C4.27636 18.9474 4.56224 19.0128 4.86247 19.0128C5.97594 19.0128 6.87664 18.1092 6.87664 16.9951C6.87664 16.323 6.549 15.7293 6.04643 15.3619C5.96028 15.3122 5.87543 15.2599 5.7945 15.205C5.7945 15.205 5.7945 15.205 5.79319 15.205C4.7241 14.4806 4.02182 13.2553 4.02182 11.8666C4.02182 9.64237 5.82191 7.83917 8.04233 7.83917C10.2628 7.83917 12.0628 9.64237 12.0628 11.8666V20.8473C12.1268 21.9039 13.0027 22.7408 14.0731 22.7408C15.1435 22.7408 16.0194 21.9026 16.0834 20.8473V11.8666C16.0834 9.64237 17.8835 7.83917 20.1039 7.83917C22.3243 7.83917 24.1244 9.64237 24.1244 11.8666V20.7231C24.1244 21.8372 25.0264 22.7408 26.1386 22.7408C27.1894 22.7408 28.0509 21.9366 28.1449 20.9088V11.8666C28.1449 8.88526 26.5276 6.2818 24.1244 4.88918H24.1231Z" fill="#F8FAFC"/>
<path d="M38.0449 24.2328C33.6628 24.2328 30.479 21.1795 30.479 16.4354C30.479 11.6914 33.5818 8.63812 38.0449 8.63812C42.5079 8.63812 45.475 11.6103 45.475 16.1085C45.475 16.5989 45.4476 17.0906 45.3667 17.5809H34.3442C34.5348 19.8169 36.0594 21.0709 37.9639 21.0709C39.597 21.0709 40.495 20.2537 40.9846 19.2442H45.0938C44.2767 22.0255 41.773 24.2341 38.0449 24.2341V24.2328ZM34.3703 15.018H41.5289C41.4741 13.0278 39.8959 11.7738 37.9365 11.7738C36.1129 11.7738 34.6705 12.9467 34.3716 15.018H34.3703Z" fill="#F8FAFC"/>
<path d="M47.5439 3.81171H51.3543V10.7643C52.3346 9.48284 54.0211 8.66558 56.0353 8.66558C59.4371 8.66558 61.9147 10.9565 61.9147 15.1265V23.9869H58.1043V15.6443C58.1043 13.2174 56.7702 11.9098 54.7561 11.9098C52.7419 11.9098 51.3543 13.2187 51.3543 15.6443V23.9869H47.5439V3.81171Z" fill="#F8FAFC"/>
<path d="M71.4135 24.2328C67.0314 24.2328 63.8477 21.1795 63.8477 16.4354C63.8477 11.6914 66.9505 8.63812 71.4135 8.63812C75.8766 8.63812 78.8436 11.6103 78.8436 16.1085C78.8436 16.5989 78.8162 17.0906 78.7353 17.5809H67.7128C67.9034 19.8169 69.4281 21.0709 71.3326 21.0709C72.9656 21.0709 73.8637 20.2537 74.3532 19.2442H78.4625C77.6453 22.0255 75.1416 24.2341 71.4135 24.2341V24.2328ZM67.7389 15.018H74.8975C74.8427 13.0278 73.2645 11.7738 71.3052 11.7738C69.4816 11.7738 68.0392 12.9467 67.7402 15.018H67.7389Z" fill="#F8FAFC"/>
<path d="M86.8468 8.63681C88.8336 8.63681 90.7381 9.56391 91.7732 10.9814V3.81171H95.6384V23.9869H91.7732V21.7509C90.8751 23.1409 89.1873 24.2315 86.8194 24.2315C82.9816 24.2315 79.9336 21.0958 79.9336 16.3792C79.9336 11.6626 82.9816 8.63681 86.8468 8.63681ZM87.7997 11.9908C85.7581 11.9908 83.8262 13.5181 83.8262 16.3805C83.8262 19.2429 85.7594 20.8787 87.7997 20.8787C89.84 20.8787 91.8006 19.2978 91.8006 16.4354C91.8006 13.5731 89.8961 11.9908 87.7997 11.9908Z" fill="#F8FAFC"/>
<path d="M98.252 4.84735C98.252 3.59335 99.231 2.61133 100.592 2.61133C101.954 2.61133 102.933 3.59204 102.933 4.84735C102.933 6.10267 101.925 7.08338 100.592 7.08338C99.2597 7.08338 98.252 6.10267 98.252 4.84735ZM98.6605 8.88266H102.471V23.9869H98.6605V8.88266Z" fill="#F8FAFC"/>
<path d="M105.519 3.81171H109.329V10.7643C110.31 9.48284 111.996 8.66558 114.01 8.66558C117.412 8.66558 119.89 10.9565 119.89 15.1265V23.9869H116.079V15.6443C116.079 13.2174 114.745 11.9098 112.731 11.9098C110.717 11.9098 109.329 13.2187 109.329 15.6443V23.9869H105.519V3.81171Z" fill="#F8FAFC"/>
<path d="M128.709 8.63678C131.131 8.63678 132.792 9.78225 133.69 11.0363V8.88261H137.528V23.9869H133.69V21.7783C132.792 23.0873 131.077 24.2314 128.683 24.2314C124.872 24.2314 121.824 21.0958 121.824 16.3792C121.824 11.6626 124.872 8.63678 128.71 8.63678H128.709ZM129.689 11.9908C127.647 11.9908 125.716 13.5181 125.716 16.3805C125.716 19.2429 127.647 20.8787 129.689 20.8787C131.731 20.8787 133.69 19.2978 133.69 16.4354C133.69 13.573 131.785 11.9908 129.689 11.9908Z" fill="#F8FAFC"/>
<path d="M146.318 24.2327C142.535 24.2327 139.895 22.0242 139.731 19.2167H143.569C143.704 20.3622 144.766 21.2344 146.29 21.2344C147.815 21.2344 148.604 20.5531 148.604 19.6809C148.604 16.982 140.085 18.6989 140.085 13.1651C140.085 10.6571 142.317 8.6394 146.045 8.6394C149.773 8.6394 151.897 10.6296 152.115 13.6293H148.468C148.359 12.4563 147.434 11.6665 145.937 11.6665C144.522 11.6665 143.787 12.2393 143.787 13.1115C143.787 15.8653 152.142 14.1471 152.251 19.6822C152.251 22.2726 149.991 24.2353 146.318 24.2353V24.2327Z" fill="#F8FAFC"/>
</g>
<defs>
<clipPath id="clip0_142_1212">
<rect width="152.252" height="32" fill="white"/>
</clipPath>
</defs>
</svg>
